<mxfile host="65bd71144e">
    <diagram id="fGUXDefY_US2jU_-eq7I" name="第 1 页">
        <mxGraphModel dx="681" dy="616" grid="1" gridSize="10" guides="1" tooltips="1" connect="1" arrows="1" fold="1" page="1" pageScale="1" pageWidth="827" pageHeight="1169" math="0" shadow="0">
            <root>
                <mxCell id="0"/>
                <mxCell id="1" parent="0"/>
                <mxCell id="18" style="edgeStyle=none;html=1;exitX=0.5;exitY=1;exitDx=0;exitDy=0;entryX=0;entryY=1;entryDx=0;entryDy=0;fontColor=#0A0A0A;" edge="1" parent="1" source="3" target="15">
                    <mxGeometry relative="1" as="geometry">
                        <Array as="points">
                            <mxPoint x="90" y="480"/>
                        </Array>
                    </mxGeometry>
                </mxCell>
                <mxCell id="20" style="edgeStyle=none;html=1;exitX=1;exitY=0.5;exitDx=0;exitDy=0;fontColor=#0A0A0A;entryX=0;entryY=1;entryDx=0;entryDy=0;" edge="1" parent="1" source="3" target="9">
                    <mxGeometry relative="1" as="geometry">
                        <mxPoint x="270" y="80" as="targetPoint"/>
                        <Array as="points">
                            <mxPoint x="200" y="80"/>
                        </Array>
                    </mxGeometry>
                </mxCell>
                <mxCell id="21" style="edgeStyle=none;html=1;exitX=0.5;exitY=1;exitDx=0;exitDy=0;entryX=0;entryY=0;entryDx=0;entryDy=0;fontColor=#0A0A0A;" edge="1" parent="1" source="3" target="19">
                    <mxGeometry relative="1" as="geometry">
                        <Array as="points">
                            <mxPoint x="90" y="340"/>
                        </Array>
                    </mxGeometry>
                </mxCell>
                <mxCell id="3" value="任务" style="rounded=0;whiteSpace=wrap;html=1;fillColor=#00E000;fontColor=#0A0A0A;strokeColor=#005700;fontStyle=1" vertex="1" parent="1">
                    <mxGeometry x="30" y="120" width="120" height="40" as="geometry"/>
                </mxCell>
                <mxCell id="6" value="采集数据" style="rounded=0;whiteSpace=wrap;html=1;" vertex="1" parent="1">
                    <mxGeometry x="280" y="260" width="120" height="40" as="geometry"/>
                </mxCell>
                <mxCell id="7" value="" style="rounded=0;whiteSpace=wrap;html=1;" vertex="1" parent="1">
                    <mxGeometry x="280" y="300" width="120" height="40" as="geometry"/>
                </mxCell>
                <mxCell id="10" value="" style="group" vertex="1" connectable="0" parent="1">
                    <mxGeometry x="280" y="20" width="120" height="120" as="geometry"/>
                </mxCell>
                <mxCell id="4" value="物料相关" style="rounded=0;whiteSpace=wrap;html=1;" vertex="1" parent="10">
                    <mxGeometry width="120" height="30" as="geometry"/>
                </mxCell>
                <mxCell id="5" value="" style="rounded=0;whiteSpace=wrap;html=1;" vertex="1" parent="10">
                    <mxGeometry y="60" width="120" height="30" as="geometry"/>
                </mxCell>
                <mxCell id="8" value="" style="rounded=0;whiteSpace=wrap;html=1;" vertex="1" parent="10">
                    <mxGeometry y="90" width="120" height="30" as="geometry"/>
                </mxCell>
                <mxCell id="9" value="" style="rounded=0;whiteSpace=wrap;html=1;" vertex="1" parent="10">
                    <mxGeometry y="30" width="120" height="30" as="geometry"/>
                </mxCell>
                <mxCell id="11" value="" style="group" vertex="1" connectable="0" parent="1">
                    <mxGeometry x="280" y="420" width="120" height="120" as="geometry"/>
                </mxCell>
                <mxCell id="12" value="工位相关" style="rounded=0;whiteSpace=wrap;html=1;" vertex="1" parent="11">
                    <mxGeometry width="120" height="30" as="geometry"/>
                </mxCell>
                <mxCell id="13" value="" style="rounded=0;whiteSpace=wrap;html=1;" vertex="1" parent="11">
                    <mxGeometry y="60" width="120" height="30" as="geometry"/>
                </mxCell>
                <mxCell id="14" value="" style="rounded=0;whiteSpace=wrap;html=1;" vertex="1" parent="11">
                    <mxGeometry y="90" width="120" height="30" as="geometry"/>
                </mxCell>
                <mxCell id="15" value="" style="rounded=0;whiteSpace=wrap;html=1;" vertex="1" parent="11">
                    <mxGeometry y="30" width="120" height="30" as="geometry"/>
                </mxCell>
                <mxCell id="19" value="" style="rounded=0;whiteSpace=wrap;html=1;" vertex="1" parent="1">
                    <mxGeometry x="280" y="340" width="120" height="40" as="geometry"/>
                </mxCell>
                <mxCell id="22" value="&lt;b&gt;&lt;font color=&quot;#0d0d0d&quot; style=&quot;font-size: 13px;&quot;&gt;A&lt;/font&gt;&lt;/b&gt;" style="rounded=0;whiteSpace=wrap;html=1;fontColor=#ffffff;fillColor=#9999FF;strokeColor=#3700CC;" vertex="1" parent="1">
                    <mxGeometry x="600" y="120" width="210" height="60" as="geometry"/>
                </mxCell>
                <mxCell id="23" value="a" style="rounded=0;whiteSpace=wrap;html=1;fontColor=#ffffff;fillColor=#a0a0e3;strokeColor=#1c1c1c;fillStyle=solid;" vertex="1" parent="1">
                    <mxGeometry x="600" y="180" width="70" height="130" as="geometry"/>
                </mxCell>
                <mxCell id="31" value="" style="edgeStyle=none;html=1;fontSize=14;fontColor=#0D0D0D;" edge="1" parent="1" source="26" target="23">
                    <mxGeometry relative="1" as="geometry"/>
                </mxCell>
                <mxCell id="32" value="" style="edgeStyle=none;html=1;fontSize=14;fontColor=#0D0D0D;" edge="1" parent="1" source="26" target="23">
                    <mxGeometry relative="1" as="geometry"/>
                </mxCell>
                <mxCell id="33" value="" style="edgeStyle=none;html=1;fontSize=14;fontColor=#0D0D0D;" edge="1" parent="1" source="26" target="27">
                    <mxGeometry relative="1" as="geometry"/>
                </mxCell>
                <mxCell id="26" value="b" style="rounded=0;whiteSpace=wrap;html=1;fontColor=#ffffff;fillColor=#a0a0e3;strokeColor=#1c1c1c;fillStyle=solid;" vertex="1" parent="1">
                    <mxGeometry x="670" y="180" width="70" height="130" as="geometry"/>
                </mxCell>
                <mxCell id="27" value="c" style="rounded=0;whiteSpace=wrap;html=1;fontColor=#0A0A0A;fillColor=#20F575;" vertex="1" parent="1">
                    <mxGeometry x="740" y="180" width="70" height="130" as="geometry"/>
                </mxCell>
                <mxCell id="28" value="" style="rounded=0;whiteSpace=wrap;html=1;fontColor=#0A0A0A;fillColor=#00E000;" vertex="1" parent="1">
                    <mxGeometry x="880" y="120" width="120" height="60" as="geometry"/>
                </mxCell>
                <mxCell id="29" value="" style="swimlane;startSize=0;fontSize=13;fontColor=#0D0D0D;fillColor=#9999FF;" vertex="1" parent="1">
                    <mxGeometry x="550" y="60" width="310" height="300" as="geometry"/>
                </mxCell>
                <mxCell id="30" value="&lt;b&gt;&lt;font style=&quot;font-size: 14px;&quot;&gt;基础模式：装配主体 + 装配件&lt;/font&gt;&lt;/b&gt;" style="text;html=1;align=center;verticalAlign=middle;resizable=0;points=[];autosize=1;strokeColor=none;fillColor=none;fontSize=13;fontColor=#0D0D0D;" vertex="1" parent="29">
                    <mxGeometry x="50" y="20" width="210" height="30" as="geometry"/>
                </mxCell>
            </root>
        </mxGraphModel>
    </diagram>
</mxfile>